# Blender v2.76 (sub 0) OBJ File: 'grassBillboard2.blend'
# www.blender.org
o Plane.002
v 1.134893 -0.011940 -0.728681
v -0.343774 -0.011940 0.617998
v 1.134892 1.988060 -0.728681
v -0.343775 1.988060 0.617998
vt 0.999900 0.000100
vt 0.999900 0.999900
vt 0.000100 0.999900
vt 0.000100 0.000100
vn -0.673300 -0.000000 -0.739300
s off
f 2/1/1 4/2/1 3/3/1
f 1/4/1 2/1/1 3/3/1
o Plane.001
v 0.982154 -0.011940 0.802553
v -0.300673 -0.011940 -0.731839
v 0.982154 1.988060 0.802552
v -0.300673 1.988060 -0.731839
vt 0.999900 0.000100
vt 0.999900 0.999900
vt 0.000100 0.999900
vt 0.000100 0.000100
vn 0.767200 -0.000000 -0.641400
s off
f 6/5/2 8/6/2 7/7/2
f 5/8/2 6/5/2 7/7/2
o Plane
v -0.000000 -0.011940 1.000000
v 0.000000 -0.011940 -1.000000
v -0.000000 1.988060 1.000000
v 0.000000 1.988060 -1.000000
vt 0.999900 0.000100
vt 0.999900 0.999900
vt 0.000100 0.999900
vt 0.000100 0.000100
vn 1.000000 0.000000 0.000000
s off
f 10/9/3 12/10/3 11/11/3
f 9/12/3 10/9/3 11/11/3
