# Blender v2.76 (sub 0) OBJ File: 'cathedra_lamp.blend'
# www.blender.org
o Cube
v 0.697356 5.083419 -0.697356
v 0.697356 5.083419 0.697356
v -0.697356 5.083419 0.697356
v -0.697356 5.083419 -0.697357
v 0.697357 5.144454 -0.697356
v 0.697356 5.144454 0.697357
v -0.697357 5.144454 0.697356
v -0.697356 5.144454 -0.697356
vt -0.000000 1.000000
vt 0.000000 -0.000000
vt 0.868304 0.000000
vt 0.988952 0.000000
vt 0.988952 1.000000
vt 0.910155 1.000000
vt 0.868304 1.000000
vt 0.910155 0.000000
vn 0.000000 -1.000000 0.000000
vn 1.000000 0.000000 0.000000
vn -0.000000 0.000000 1.000000
vn -1.000000 -0.000000 -0.000000
vn 0.000000 0.000000 -1.000000
s off
f 2/1/1 3/2/1 4/3/1
f 5/4/2 6/5/2 2/6/2
f 6/4/3 7/5/3 3/6/3
f 7/4/4 8/5/4 4/6/4
f 1/4/5 4/5/5 8/6/5
f 1/7/1 2/1/1 4/3/1
f 1/8/2 5/4/2 2/6/2
f 2/8/3 6/4/3 3/6/3
f 3/8/4 7/4/4 4/6/4
f 5/8/5 1/4/5 8/6/5
