# Blender v2.76 (sub 0) OBJ File: 'grassBillboard.blend'
# www.blender.org
o Plane_Plane.001
v 0.057335 0.037191 1.098073
v 0.053795 2.037188 1.098073
v 0.057335 0.037191 -0.901927
v 0.053795 2.037188 -0.901927
v -0.905174 0.026350 0.661043
v -0.907756 2.026347 0.658621
v 0.463128 0.026350 -0.797639
v 0.460546 2.026347 -0.800061
v -0.910126 0.026350 -0.406237
v -0.907686 2.026347 -0.408802
v 0.538690 0.026350 0.972505
v 0.541130 2.026347 0.969941
vt 0.879794 0.971067
vt 0.220206 0.971067
vt 0.220206 -0.003593
vt 0.879526 -0.002200
vt 0.879526 0.968161
vt 0.220474 0.968161
vt 0.876582 0.973354
vt 0.218817 0.973354
vt 0.218817 0.001684
vt 0.879794 -0.003593
vt 0.220474 -0.002200
vt 0.876582 0.001684
vn -1.000000 -0.001800 0.000000
vn -0.729300 -0.001800 -0.684100
vn 0.689400 -0.001800 -0.724400
s off
f 2/1/1 4/2/1 3/3/1
f 5/4/2 6/5/2 8/6/2
f 10/7/3 12/8/3 11/9/3
f 1/10/1 2/1/1 3/3/1
f 7/11/2 5/4/2 8/6/2
f 9/12/3 10/7/3 11/9/3
