# Blender v2.76 (sub 0) OBJ File: 'TAtestCube.blend'
# www.blender.org
o Cube
v 1.000000 -1.000000 -1.000000
v 1.000000 -1.000000 1.000000
v -1.000000 -1.000000 1.000000
v -1.000000 -1.000000 -1.000000
v 1.000000 1.000000 -0.999999
v 0.999999 1.000000 1.000001
v -1.000000 1.000000 1.000000
v -1.000000 1.000000 -1.000000
v 1.000000 1.000000 0.000001
v 1.000000 -1.000000 0.000000
v -0.000001 1.000000 1.000000
v 0.000000 -1.000000 1.000000
v 1.000000 0.000000 1.000000
v 1.000000 -1.000000 1.000000
v -1.000000 0.000000 1.000000
v -1.000000 -1.000000 1.000000
v 0.999999 1.000000 1.000001
v -1.000000 1.000000 1.000000
v -0.000001 1.000000 1.000000
v 0.000000 -1.000000 1.000000
v 1.000000 0.000000 1.000000
v -0.000000 0.000000 1.000000
v -1.000000 0.000000 1.000000
vt 0.000000 0.000000
vt 0.827710 0.947292
vt 0.341734 0.724779
vt 0.580118 0.502265
vt 0.172090 0.947466
vt 0.016705 0.723835
vt 0.172090 0.500204
vt 0.341097 0.945576
vt 0.173865 0.945576
vt 0.173865 0.786669
vt 0.500172 0.058646
vt 0.500172 0.499527
vt 0.018648 0.499527
vt 0.340344 0.947460
vt 0.172636 0.947460
vt 0.172636 0.501733
vt 0.172928 0.945737
vt 0.016754 0.945737
vt 0.016754 0.787349
vt 0.663444 0.945802
vt 0.500314 0.945802
vt 0.500314 0.786820
vt 0.498918 0.944615
vt 0.341260 0.944615
vt 0.341260 0.786958
vt 0.827710 0.502264
vt 0.341734 0.947293
vt 0.341734 0.502265
vt 0.016705 0.500204
vt 0.016705 0.947466
vt 0.341097 0.786669
vt 0.018648 0.058646
vt 0.340344 0.501733
vt 0.172928 0.787349
vt 0.663444 0.786820
vt 0.498918 0.786957
vn 0.000000 -1.000000 0.000000
vn 0.000000 1.000000 -0.000000
vn 1.000000 0.000000 0.000000
vn -0.000000 -0.000000 1.000000
vn -1.000000 -0.000000 -0.000000
vn 0.000000 0.000000 -1.000000
s off
f 10/1/1 12/1/1 4/1/1
f 8/2/2 11/3/2 9/4/2
f 9/5/3 13/6/3 10/7/3
f 17/8/4 19/9/4 22/10/4
f 15/1/5 8/1/5 4/1/5
f 1/11/6 4/12/6 8/13/6
f 5/14/3 9/15/3 10/16/3
f 19/17/4 18/18/4 23/19/4
f 21/20/4 22/21/4 20/22/4
f 22/23/4 23/24/4 16/25/4
f 4/1/1 1/1/1 10/1/1
f 10/1/1 2/1/1 12/1/1
f 12/1/1 3/1/1 4/1/1
f 9/4/2 5/26/2 8/2/2
f 8/2/2 7/27/2 11/3/2
f 11/3/2 6/28/2 9/4/2
f 2/29/3 10/7/3 13/6/3
f 9/5/3 6/30/3 13/6/3
f 21/31/4 17/8/4 22/10/4
f 4/1/5 3/1/5 15/1/5
f 15/1/5 7/1/5 8/1/5
f 5/32/6 1/11/6 8/13/6
f 1/33/3 5/14/3 10/16/3
f 22/34/4 19/17/4 23/19/4
f 14/35/4 21/20/4 20/22/4
f 20/36/4 22/23/4 16/25/4
