# Blender v2.76 (sub 0) OBJ File: 'wall_2_without_door.blend'
# www.blender.org
o Cube.006_Cube.014
v -2.998885 -0.000111 -0.997822
v -2.999463 -0.000111 -0.944817
v -2.998885 0.052896 -0.997822
v -2.998986 -0.000111 -0.988871
v -2.999463 0.009096 -0.944817
v -2.998992 0.052896 -0.988870
v 2.999695 -0.000111 -0.944815
v 2.999695 -0.000111 -0.997822
v 2.999695 0.052896 -0.997822
v 2.999695 0.052896 -0.988869
v 2.999695 -0.000111 -0.988869
v 2.999695 0.009096 -0.944815
v 2.683949 -0.000111 -0.944815
v 2.368204 -0.000111 -0.944815
v 2.052459 -0.000111 -0.944815
v 1.736714 -0.000111 -0.944815
v 1.420969 -0.000111 -0.944816
v 1.105224 -0.000111 -0.944816
v 0.789479 -0.000111 -0.944816
v 0.473734 -0.000111 -0.944816
v 0.157988 -0.000111 -0.944816
v -0.157757 -0.000111 -0.944816
v -0.473502 -0.000111 -0.944816
v -0.789247 -0.000111 -0.944816
v -1.104992 -0.000111 -0.944816
v -1.420737 -0.000111 -0.944816
v -1.736483 -0.000111 -0.944817
v -2.052228 -0.000111 -0.944817
v -2.367973 -0.000111 -0.944817
v -2.683718 -0.000111 -0.944817
v 2.683980 0.052896 -0.997822
v 2.368265 0.052896 -0.997822
v 2.052550 0.052896 -0.997822
v 1.736836 0.052896 -0.997822
v 1.421121 0.052896 -0.997822
v 1.105406 0.052896 -0.997822
v 0.789691 0.052896 -0.997822
v 0.473977 0.052896 -0.997822
v 0.158262 0.052896 -0.997822
v -0.157453 0.052896 -0.997822
v -0.473167 0.052896 -0.997822
v -0.788882 0.052896 -0.997822
v -1.104597 0.052896 -0.997822
v -1.420312 0.052896 -0.997822
v -1.736026 0.052896 -0.997822
v -2.051741 0.052896 -0.997822
v -2.367456 0.052896 -0.997822
v -2.683171 0.052896 -0.997822
v 2.683975 -0.000111 -0.988869
v 2.368255 -0.000111 -0.988869
v 2.052535 -0.000111 -0.988869
v 1.736815 -0.000111 -0.988869
v 1.421095 -0.000111 -0.988869
v 1.105375 -0.000111 -0.988869
v 0.789654 -0.000111 -0.988869
v 0.473934 -0.000111 -0.988869
v 0.158214 -0.000111 -0.988870
v -0.157506 -0.000111 -0.988870
v -0.473226 -0.000111 -0.988870
v -0.788946 -0.000111 -0.988870
v -1.104666 -0.000111 -0.988870
v -1.420386 -0.000111 -0.988870
v -1.736106 -0.000111 -0.988870
v -2.051826 -0.000111 -0.988870
v -2.367546 -0.000111 -0.988870
v -2.683266 -0.000111 -0.988870
v 2.683949 0.009096 -0.944815
v 2.368204 0.009096 -0.944815
v 2.052459 0.009096 -0.944815
v 1.736714 0.009096 -0.944815
v 1.420969 0.009096 -0.944816
v 1.105224 0.009096 -0.944816
v 0.789479 0.009096 -0.944816
v 0.473734 0.009096 -0.944816
v 0.157988 0.009096 -0.944816
v -0.157757 0.009096 -0.944816
v -0.473502 0.009096 -0.944816
v -0.789247 0.009096 -0.944816
v -1.104992 0.009096 -0.944816
v -1.420737 0.009096 -0.944816
v -1.736483 0.009096 -0.944817
v -2.052228 0.009096 -0.944817
v -2.367973 0.009096 -0.944817
v -2.683718 0.009096 -0.944817
v -2.683272 0.052896 -0.988870
v -2.367551 0.052896 -0.988870
v -2.051831 0.052896 -0.988870
v -1.736110 0.052896 -0.988870
v -1.420390 0.052896 -0.988870
v -1.104670 0.052896 -0.988870
v -0.788949 0.052896 -0.988870
v -0.473229 0.052896 -0.988870
v -0.157509 0.052896 -0.988869
v 0.158212 0.052896 -0.988869
v 0.473932 0.052896 -0.988869
v 0.789652 0.052896 -0.988869
v 1.105373 0.052896 -0.988869
v 1.421093 0.052896 -0.988869
v 1.736813 0.052896 -0.988869
v 2.052534 0.052896 -0.988869
v 2.368254 0.052896 -0.988869
v 2.683974 0.052896 -0.988869
v -2.683171 -0.000111 -0.997822
v -2.367456 -0.000111 -0.997822
v -2.051741 -0.000111 -0.997822
v -1.736026 -0.000111 -0.997822
v -1.420311 -0.000111 -0.997822
v -1.104596 -0.000111 -0.997822
v -0.788882 -0.000111 -0.997822
v -0.473167 -0.000111 -0.997822
v -0.157452 -0.000111 -0.997822
v 0.158262 -0.000111 -0.997822
v 0.473977 -0.000111 -0.997822
v 0.789692 -0.000111 -0.997822
v 1.105406 -0.000111 -0.997822
v 1.421121 -0.000111 -0.997822
v 1.736836 -0.000111 -0.997822
v 2.052550 -0.000111 -0.997822
v 2.368265 -0.000111 -0.997822
v 2.683980 -0.000111 -0.997822
vt 0.260469 0.131474
vt 0.260266 0.025958
vt 0.493978 0.025958
vt 0.260223 0.004519
vt 0.493930 0.004519
vt 0.245820 0.153412
vt 0.245820 0.131359
vt 0.479543 0.131359
vt 0.479668 0.302202
vt 0.245958 0.302202
vt 0.479691 0.323646
vt 0.245986 0.323646
vt 0.493922 0.323751
vt 0.260224 0.323752
vt 0.260273 0.302312
vt 0.488299 0.323754
vt 0.254593 0.323754
vt 0.254637 0.302314
vt 0.254051 0.323755
vt 0.020340 0.323755
vt 0.020352 0.302314
vt 0.243914 0.323753
vt 0.010215 0.323753
vt 0.010251 0.302313
vt 0.495012 0.323935
vt 0.262531 0.323935
vt 0.262563 0.302490
vt 0.256256 0.323936
vt 0.023771 0.323936
vt 0.023799 0.302490
vt 0.254911 0.323755
vt 0.021212 0.323755
vt 0.021234 0.302314
vt 0.494903 0.323756
vt 0.261202 0.323757
vt 0.261220 0.302315
vt 0.257373 0.323757
vt 0.023667 0.323757
vt 0.023682 0.302316
vt 0.497307 0.323756
vt 0.263610 0.323757
vt 0.263620 0.302315
vt 0.489400 0.323758
vt 0.255693 0.323758
vt 0.255699 0.302316
vt 0.249532 0.323760
vt 0.015822 0.323760
vt 0.015822 0.302317
vt 0.255103 0.323758
vt 0.021401 0.323758
vt 0.021397 0.302316
vt 0.495015 0.323757
vt 0.261317 0.323758
vt 0.261311 0.302316
vt 0.484175 0.323760
vt 0.250468 0.323760
vt 0.250444 0.302317
vt 0.248437 0.323760
vt 0.014729 0.323761
vt 0.014698 0.302317
vt 0.240925 0.324687
vt 0.010883 0.324687
vt 0.010866 0.303140
vt 0.239379 0.323648
vt 0.005673 0.323648
vt 0.005650 0.302205
vt 0.493975 0.302312
vt 0.260469 0.153527
vt 0.488348 0.302314
vt 0.254813 0.153523
vt 0.254068 0.302314
vt 0.020321 0.153520
vt 0.243954 0.302313
vt 0.010390 0.153527
vt 0.495047 0.302490
vt 0.262684 0.153670
vt 0.256285 0.302490
vt 0.023901 0.153669
vt 0.254938 0.302314
vt 0.021316 0.153528
vt 0.494925 0.302315
vt 0.261282 0.153528
vt 0.257393 0.302315
vt 0.023731 0.153525
vt 0.497322 0.302315
vt 0.263647 0.153530
vt 0.489409 0.302316
vt 0.255706 0.153525
vt 0.249535 0.302317
vt 0.015801 0.153524
vt 0.255104 0.302316
vt 0.495015 0.302316
vt 0.484156 0.302317
vt 0.250289 0.153525
vt 0.248410 0.302317
vt 0.014497 0.153525
vt 0.240912 0.303140
vt 0.010764 0.153632
vt 0.239361 0.302205
vt 0.005531 0.153414
vt 0.494197 0.131474
vt 0.254813 0.131470
vt 0.488535 0.131470
vt 0.020293 0.131468
vt 0.254014 0.131468
vt 0.010390 0.131474
vt 0.244119 0.131474
vt 0.262684 0.131612
vt 0.495194 0.131612
vt 0.023901 0.131611
vt 0.256407 0.131611
vt 0.021315 0.131475
vt 0.255044 0.131475
vt 0.261281 0.131475
vt 0.495006 0.131475
vt 0.023730 0.131472
vt 0.257454 0.131472
vt 0.263647 0.131477
vt 0.497375 0.131477
vt 0.255705 0.131473
vt 0.489429 0.131473
vt 0.015799 0.131471
vt 0.249520 0.131471
vt 0.255072 0.131475
vt 0.250276 0.131472
vt 0.484001 0.131472
vt 0.014480 0.131473
vt 0.248204 0.131473
vt 0.010764 0.131473
vt 0.240822 0.131473
vt 0.005531 0.131361
vt 0.239255 0.131361
vt 0.245959 0.025845
vt 0.245988 0.004402
vt 0.479690 0.004402
vt 0.005655 0.025848
vt 0.005680 0.004405
vt 0.239380 0.004405
vt 0.010867 0.025450
vt 0.010887 0.003904
vt 0.240925 0.003904
vt 0.014481 0.025961
vt 0.014480 0.004519
vt 0.248177 0.004519
vt 0.250278 0.025961
vt 0.250276 0.004519
vt 0.483973 0.004519
vt 0.261303 0.025961
vt 0.261310 0.004519
vt 0.495016 0.004519
vt 0.021358 0.025961
vt 0.021359 0.004519
vt 0.255061 0.004519
vt 0.015801 0.025960
vt 0.015799 0.004519
vt 0.249497 0.004519
vt 0.255695 0.025960
vt 0.255692 0.004519
vt 0.489391 0.004519
vt 0.263618 0.025961
vt 0.263610 0.004519
vt 0.497316 0.004519
vt 0.023678 0.025960
vt 0.023666 0.004519
vt 0.257367 0.004519
vt 0.261215 0.025960
vt 0.261201 0.004519
vt 0.494905 0.004519
vt 0.021231 0.025959
vt 0.021212 0.004519
vt 0.254913 0.004519
vt 0.023794 0.026073
vt 0.023771 0.004628
vt 0.256260 0.004628
vt 0.262559 0.026073
vt 0.262530 0.004628
vt 0.495018 0.004628
vt 0.010245 0.025959
vt 0.010214 0.004519
vt 0.243918 0.004519
vt 0.019996 0.025958
vt 0.019934 0.004519
vt 0.253632 0.004519
vt 0.254632 0.025958
vt 0.254592 0.004519
vt 0.488293 0.004519
vt 0.479666 0.025845
vt 0.239359 0.025848
vt 0.240909 0.025450
vt 0.248182 0.025961
vt 0.483980 0.025961
vt 0.495013 0.025961
vt 0.255065 0.025961
vt 0.249502 0.025960
vt 0.489399 0.025960
vt 0.497328 0.025961
vt 0.257383 0.025960
vt 0.494923 0.025960
vt 0.254936 0.025959
vt 0.256285 0.026073
vt 0.495051 0.026073
vt 0.243954 0.025959
vt 0.253699 0.025958
vt 0.488337 0.025958
vt 0.479543 0.153412
vt 0.494198 0.153527
vt 0.488537 0.153523
vt 0.254042 0.153520
vt 0.244120 0.153527
vt 0.495194 0.153670
vt 0.256407 0.153669
vt 0.255045 0.153528
vt 0.495007 0.153528
vt 0.257454 0.153525
vt 0.497376 0.153530
vt 0.489429 0.153525
vt 0.249521 0.153524
vt 0.255075 0.153528
vt 0.484013 0.153525
vt 0.248221 0.153525
vt 0.240822 0.153632
vt 0.239255 0.153414
vn 0.000000 1.000000 0.000000
vn 0.000000 0.000000 -1.000000
vn 0.000000 -0.709200 -0.705100
vn 0.000000 -1.000000 0.000000
vn 0.000000 -0.709100 -0.705100
s off
f 30/1/1 66/2/1 4/3/1
f 66/2/1 103/4/1 1/5/1
f 12/6/2 7/7/2 13/8/2
f 102/9/3 10/10/3 12/6/3
f 31/11/4 9/12/4 10/10/4
f 3/13/4 48/14/4 85/15/4
f 48/16/4 47/17/4 86/18/4
f 47/19/4 46/20/4 87/21/4
f 46/22/4 45/23/4 88/24/4
f 45/25/4 44/26/4 89/27/4
f 44/28/4 43/29/4 90/30/4
f 43/31/4 42/32/4 91/33/4
f 42/34/4 41/35/4 92/36/4
f 41/37/4 40/38/4 93/39/4
f 40/40/4 39/41/4 94/42/4
f 39/43/4 38/44/4 95/45/4
f 38/46/4 37/47/4 96/48/4
f 37/49/4 36/50/4 97/51/4
f 36/52/4 35/53/4 98/54/4
f 35/55/4 34/56/4 99/57/4
f 34/58/4 33/59/4 100/60/4
f 33/61/4 32/62/4 101/63/4
f 32/64/4 31/65/4 102/66/4
f 6/67/5 85/15/5 84/68/5
f 85/69/5 86/18/5 83/70/5
f 86/71/5 87/21/5 82/72/5
f 87/73/5 88/24/5 81/74/5
f 88/75/5 89/27/5 80/76/5
f 89/77/5 90/30/5 79/78/5
f 90/79/5 91/33/5 78/80/5
f 91/81/5 92/36/5 77/82/5
f 92/83/5 93/39/5 76/84/5
f 93/85/5 94/42/5 75/86/5
f 94/87/3 95/45/3 74/88/3
f 95/89/3 96/48/3 73/90/3
f 96/91/3 97/51/3 72/80/3
f 97/92/3 98/54/3 71/82/3
f 98/93/3 99/57/3 70/94/3
f 99/95/3 100/60/3 69/96/3
f 100/97/3 101/63/3 68/98/3
f 101/99/3 102/66/3 67/100/3
f 84/68/2 30/1/2 2/101/2
f 83/70/2 29/102/2 30/103/2
f 82/72/2 28/104/2 29/105/2
f 81/74/2 27/106/2 28/107/2
f 80/76/2 26/108/2 27/109/2
f 79/78/2 25/110/2 26/111/2
f 78/80/2 24/112/2 25/113/2
f 77/82/2 23/114/2 24/115/2
f 76/84/2 22/116/2 23/117/2
f 75/86/2 21/118/2 22/119/2
f 74/88/2 20/120/2 21/121/2
f 73/90/2 19/122/2 20/123/2
f 72/80/2 18/112/2 19/124/2
f 71/82/2 17/114/2 18/115/2
f 70/94/2 16/125/2 17/126/2
f 69/96/2 15/127/2 16/128/2
f 68/98/2 14/129/2 15/130/2
f 67/100/2 13/131/2 14/132/2
f 11/133/1 8/134/1 120/135/1
f 49/136/1 120/137/1 119/138/1
f 50/139/1 119/140/1 118/141/1
f 51/142/1 118/143/1 117/144/1
f 52/145/1 117/146/1 116/147/1
f 53/148/1 116/149/1 115/150/1
f 54/151/1 115/152/1 114/153/1
f 55/154/1 114/155/1 113/156/1
f 56/157/1 113/158/1 112/159/1
f 57/160/1 112/161/1 111/162/1
f 58/163/1 111/164/1 110/165/1
f 59/166/1 110/167/1 109/168/1
f 60/169/1 109/170/1 108/171/1
f 61/172/1 108/173/1 107/174/1
f 62/175/1 107/176/1 106/177/1
f 63/178/1 106/179/1 105/180/1
f 64/181/1 105/182/1 104/183/1
f 65/184/1 104/185/1 103/186/1
f 7/7/1 11/133/1 49/187/1
f 13/131/1 49/136/1 50/188/1
f 14/129/1 50/139/1 51/189/1
f 15/127/1 51/142/1 52/190/1
f 16/125/1 52/145/1 53/191/1
f 17/114/1 53/148/1 54/192/1
f 18/112/1 54/151/1 55/193/1
f 19/122/1 55/154/1 56/194/1
f 20/120/1 56/157/1 57/195/1
f 21/118/1 57/160/1 58/196/1
f 22/116/1 58/163/1 59/197/1
f 23/114/1 59/166/1 60/198/1
f 24/112/1 60/169/1 61/199/1
f 25/110/1 61/172/1 62/200/1
f 26/108/1 62/175/1 63/201/1
f 27/106/1 63/178/1 64/202/1
f 28/104/1 64/181/1 65/203/1
f 29/102/1 65/184/1 66/204/1
f 2/101/1 30/1/1 4/3/1
f 4/3/1 66/2/1 1/5/1
f 67/205/2 12/6/2 13/8/2
f 67/205/3 102/9/3 12/6/3
f 102/9/4 31/11/4 10/10/4
f 6/67/4 3/13/4 85/15/4
f 85/69/4 48/16/4 86/18/4
f 86/71/4 47/19/4 87/21/4
f 87/73/4 46/22/4 88/24/4
f 88/75/4 45/25/4 89/27/4
f 89/77/4 44/28/4 90/30/4
f 90/79/4 43/31/4 91/33/4
f 91/81/4 42/34/4 92/36/4
f 92/83/4 41/37/4 93/39/4
f 93/85/4 40/40/4 94/42/4
f 94/87/4 39/43/4 95/45/4
f 95/89/4 38/46/4 96/48/4
f 96/91/4 37/49/4 97/51/4
f 97/92/4 36/52/4 98/54/4
f 98/93/4 35/55/4 99/57/4
f 99/95/4 34/58/4 100/60/4
f 100/97/4 33/61/4 101/63/4
f 101/99/4 32/64/4 102/66/4
f 5/206/5 6/67/5 84/68/5
f 84/207/5 85/69/5 83/70/5
f 83/208/5 86/71/5 82/72/5
f 82/209/5 87/73/5 81/74/5
f 81/210/5 88/75/5 80/76/5
f 80/211/5 89/77/5 79/78/5
f 79/212/5 90/79/5 78/80/5
f 78/213/5 91/81/5 77/82/5
f 77/214/5 92/83/5 76/84/5
f 76/215/3 93/85/3 75/86/3
f 75/216/3 94/87/3 74/88/3
f 74/217/3 95/89/3 73/90/3
f 73/218/3 96/91/3 72/80/3
f 72/213/3 97/92/3 71/82/3
f 71/219/3 98/93/3 70/94/3
f 70/220/3 99/95/3 69/96/3
f 69/221/3 100/97/3 68/98/3
f 68/222/3 101/99/3 67/100/3
f 5/206/2 84/68/2 2/101/2
f 84/207/2 83/70/2 30/103/2
f 83/208/2 82/72/2 29/105/2
f 82/209/2 81/74/2 28/107/2
f 81/210/2 80/76/2 27/109/2
f 80/211/2 79/78/2 26/111/2
f 79/212/2 78/80/2 25/113/2
f 78/213/2 77/82/2 24/115/2
f 77/214/2 76/84/2 23/117/2
f 76/215/2 75/86/2 22/119/2
f 75/216/2 74/88/2 21/121/2
f 74/217/2 73/90/2 20/123/2
f 73/218/2 72/80/2 19/124/2
f 72/213/2 71/82/2 18/115/2
f 71/219/2 70/94/2 17/126/2
f 70/220/2 69/96/2 16/128/2
f 69/221/2 68/98/2 15/130/2
f 68/222/2 67/100/2 14/132/2
f 49/187/1 11/133/1 120/135/1
f 50/188/1 49/136/1 119/138/1
f 51/189/1 50/139/1 118/141/1
f 52/190/1 51/142/1 117/144/1
f 53/191/1 52/145/1 116/147/1
f 54/192/1 53/148/1 115/150/1
f 55/193/1 54/151/1 114/153/1
f 56/194/1 55/154/1 113/156/1
f 57/195/1 56/157/1 112/159/1
f 58/196/1 57/160/1 111/162/1
f 59/197/1 58/163/1 110/165/1
f 60/198/1 59/166/1 109/168/1
f 61/199/1 60/169/1 108/171/1
f 62/200/1 61/172/1 107/174/1
f 63/201/1 62/175/1 106/177/1
f 64/202/1 63/178/1 105/180/1
f 65/203/1 64/181/1 104/183/1
f 66/204/1 65/184/1 103/186/1
f 13/8/1 7/7/1 49/187/1
f 14/132/1 13/131/1 50/188/1
f 15/130/1 14/129/1 51/189/1
f 16/128/1 15/127/1 52/190/1
f 17/126/1 16/125/1 53/191/1
f 18/115/1 17/114/1 54/192/1
f 19/124/1 18/112/1 55/193/1
f 20/123/1 19/122/1 56/194/1
f 21/121/1 20/120/1 57/195/1
f 22/119/1 21/118/1 58/196/1
f 23/117/1 22/116/1 59/197/1
f 24/115/1 23/114/1 60/198/1
f 25/113/1 24/112/1 61/199/1
f 26/111/1 25/110/1 62/200/1
f 27/109/1 26/108/1 63/201/1
f 28/107/1 27/106/1 64/202/1
f 29/105/1 28/104/1 65/203/1
f 30/103/1 29/102/1 66/204/1
o Plane.001
v -3.000000 7.100000 -0.997778
v -3.000000 7.100000 1.901064
v -3.000000 0.000000 -0.997778
v -3.000000 -0.000000 1.901064
v -1.205139 7.100000 -0.997778
v -1.205139 7.100000 1.901064
v -1.205139 0.000000 -0.997778
v -1.205139 -0.000000 1.901064
v -1.205139 4.715837 -0.997778
v 3.000000 7.100000 -0.997778
v 3.000000 7.100000 1.901064
v 3.000000 0.000000 -0.997778
v 3.000000 -0.000000 1.901064
v 1.205139 7.100000 -0.997778
v 1.205139 7.100000 1.901064
v 1.205139 0.000000 -0.997778
v 1.205139 -0.000000 1.901064
v 1.205139 4.715837 -0.997778
v -1.205139 6.841322 -0.997778
v 1.205139 6.841322 -0.997778
v 3.000000 6.839461 -0.997778
v -3.000000 6.821175 -0.997778
v -3.000000 4.707809 -0.997778
v 3.000000 4.703824 -0.997778
v 1.205139 2.357918 -0.997778
v 3.000000 2.351912 -0.997778
v -3.000000 2.353905 -0.997778
v -1.205139 2.357918 -0.997778
v -3.000000 0.000000 0.451643
v -1.205139 0.000000 0.451643
v 3.000000 0.000000 0.451643
v 1.205139 0.000000 0.451643
v -3.000000 7.100000 0.451643
v -1.205139 7.100000 0.451643
v 3.000000 7.100000 0.451643
v 1.205139 7.100000 0.451643
vt 0.462555 0.910393
vt 0.035201 0.910393
vt 0.035201 0.410747
vt 0.867427 0.679267
vt 0.936588 0.679267
vt 0.936588 0.992416
vt 0.816125 0.999280
vt 0.585106 0.999280
vt 0.585106 0.682893
vt 0.461717 0.410747
vt 0.461717 0.910393
vt 0.034364 0.910393
vt 0.988136 0.588093
vt 0.518570 0.588093
vt 0.518570 0.068121
vt 0.816132 0.682606
vt 0.816132 0.999195
vt 0.587765 0.999195
vt 0.036555 0.410747
vt 0.461149 0.410747
vt 0.461149 0.910393
vt 0.815941 0.999390
vt 0.539012 0.999390
vt 0.539012 0.682110
vt 0.516038 0.044086
vt 0.992257 0.044086
vt 0.992257 0.598244
vt 0.866231 0.994106
vt 0.866231 0.679851
vt 0.935392 0.679851
vt 0.866291 0.679005
vt 0.865794 0.993288
vt 0.935453 0.993288
vt 0.988164 0.088237
vt 0.988160 0.558149
vt 0.518594 0.553691
vt 0.987845 0.067332
vt 0.988831 0.588631
vt 0.519262 0.587744
vt 0.989930 0.561751
vt 0.520364 0.564407
vt 0.520364 0.092250
vt 0.989638 0.587484
vt 0.520072 0.588812
vt 0.520072 0.068840
vt 0.987037 0.067332
vt 0.987037 0.588632
vt 0.517470 0.587745
vt 0.509678 0.681706
vt 0.786347 0.681706
vt 0.786347 0.999774
vt 0.585076 0.998822
vt 0.585076 0.682581
vt 0.816294 0.682581
vt 0.587146 0.682694
vt 0.816121 0.682694
vt 0.816121 0.998806
vt 0.036270 0.410747
vt 0.460864 0.410747
vt 0.460864 0.910393
vt 0.460030 0.410747
vt 0.460030 0.910393
vt 0.032677 0.910393
vt 0.461717 0.910798
vt 0.034364 0.910798
vt 0.034364 0.411153
vt 0.462555 0.410747
vt 0.862040 0.992416
vt 0.816125 0.682892
vt 0.034364 0.410747
vt 0.988136 0.066793
vt 0.587765 0.682606
vt 0.036555 0.910393
vt 0.815941 0.682110
vt 0.516038 0.598244
vt 0.935392 0.994106
vt 0.935453 0.679005
vt 0.518598 0.086458
vt 0.518278 0.067332
vt 0.989930 0.091838
vt 0.989638 0.066184
vt 0.517470 0.067332
vt 0.509678 0.999774
vt 0.816294 0.998822
vt 0.587146 0.998806
vt 0.036270 0.910393
vt 0.032677 0.410747
vt 0.461717 0.411153
vn 0.000000 -1.000000 0.000000
vn 0.000000 0.000000 1.000000
vn 0.000000 1.000000 0.000000
s off
f 126/223/6 122/224/6 153/225/6
f 139/226/7 125/227/7 121/228/7
f 127/229/8 123/230/8 149/231/8
f 155/232/6 131/233/6 135/234/6
f 136/235/7 132/236/7 146/237/7
f 151/238/8 132/239/8 136/240/8
f 125/241/6 134/242/6 156/243/6
f 128/244/8 137/245/8 152/246/8
f 129/247/7 138/248/7 140/249/7
f 139/250/7 140/251/7 134/252/7
f 140/253/7 141/254/7 130/255/7
f 129/256/7 139/257/7 142/258/7
f 148/259/7 129/260/7 143/261/7
f 138/262/7 144/263/7 141/264/7
f 145/265/7 146/266/7 144/267/7
f 127/268/7 148/269/7 147/270/7
f 150/271/8 152/272/8 136/273/8
f 133/274/8 151/275/8 152/276/8
f 150/277/8 149/278/8 124/279/8
f 154/280/6 156/281/6 135/282/6
f 130/283/6 155/284/6 156/285/6
f 154/286/6 153/287/6 121/288/6
f 154/289/6 126/223/6 153/225/6
f 142/290/7 139/226/7 121/228/7
f 150/291/8 127/229/8 149/231/8
f 156/292/6 155/232/6 135/234/6
f 145/293/7 136/235/7 146/237/7
f 152/294/8 151/238/8 136/240/8
f 154/295/6 125/241/6 156/243/6
f 150/296/8 128/244/8 152/246/8
f 139/297/7 129/247/7 140/249/7
f 125/298/7 139/250/7 134/252/7
f 134/299/7 140/253/7 130/255/7
f 143/300/7 129/256/7 142/258/7
f 147/301/7 148/259/7 143/261/7
f 140/302/7 138/262/7 141/264/7
f 138/303/7 145/265/7 144/267/7
f 123/304/7 127/268/7 147/270/7
f 127/305/8 150/271/8 136/273/8
f 137/306/8 133/274/8 152/276/8
f 128/307/8 150/277/8 124/279/8
f 126/308/6 154/280/6 135/282/6
f 134/309/6 130/283/6 156/285/6
f 125/310/6 154/286/6 121/288/6
