# Blender v2.67 (sub 0) OBJ File: 'New Tree.blend'
# www.blender.org
o Icosphere
v -0.100824 -0.229682 -0.280940
v -0.100824 1.041720 -0.464004
v 0.155490 -0.229681 -0.094717
v 0.155490 1.029204 -0.278203
v 0.057587 -0.229681 0.206598
v 0.057587 1.008954 0.022431
v -0.259235 -0.229682 0.206598
v -0.259234 1.008954 0.022431
v -0.357138 -0.229681 -0.094717
v -0.357137 1.029204 -0.278203
v -0.100824 2.342558 -0.275753
v 0.078237 2.333814 -0.145953
v 0.009842 2.319667 0.064070
v -0.211489 2.319667 0.064070
v -0.279884 2.333814 -0.145953
v -0.284336 1.562096 -0.882117
v -0.414271 1.757740 -0.744293
v -0.174972 1.862071 -0.666791
v -0.045037 1.666426 -0.804615
v -0.246997 1.282035 -0.369315
v -0.246997 1.513867 -0.293906
v 0.025221 1.538108 -0.222417
v 0.065479 1.257795 -0.231402
v -0.654937 2.597467 -0.968518
v -0.633397 2.627522 -0.756252
v -0.419014 2.630542 -0.734925
v -0.421795 2.597857 -0.965765
v -0.157630 3.973690 -2.689793
v -2.327003 4.084945 -1.089178
v 1.223823 6.206208 0.000468
v 1.798656 4.266546 -0.966807
v 0.537587 2.732355 -1.335701
v -1.000997 2.355737 -1.312546
v -1.856443 4.736817 1.540203
v 1.354105 4.337109 1.447886
v 1.310022 2.872795 0.477139
v 0.298435 2.054494 -0.063369
v -1.694234 2.740555 0.388030
v -0.265936 3.060119 1.494113
v 0.519753 6.846972 1.361299
v -0.694158 5.753572 -2.065759
v -1.901090 6.025522 -0.111734
v -0.686370 5.757943 1.764029
v 0.347294 8.120342 0.547185
v -1.396779 7.897048 0.852036
v -1.140172 8.136684 -0.795372
v -0.113677 7.392015 -1.236787
v 0.625216 8.188940 -0.436404
v -1.113312 9.229436 0.024348
v -0.157630 3.973690 -2.689793
v -0.157630 3.973690 -2.689793
v -0.157630 3.973690 -2.689793
v -0.157630 3.973690 -2.689793
v -0.157630 3.973690 -2.689793
v -2.327003 4.084945 -1.089178
v -2.327003 4.084945 -1.089178
v -2.327003 4.084945 -1.089178
v -2.327003 4.084945 -1.089178
v -2.327003 4.084945 -1.089178
v 1.223823 6.206208 0.000468
v 1.223823 6.206208 0.000468
v 1.223823 6.206208 0.000468
v 1.223823 6.206208 0.000468
v 1.223823 6.206208 0.000468
v -0.694158 5.753572 -2.065759
v -0.694158 5.753572 -2.065759
v -0.694158 5.753572 -2.065759
v -0.694158 5.753572 -2.065759
v -0.694158 5.753572 -2.065759
v 1.798656 4.266546 -0.966807
v 1.798656 4.266546 -0.966807
v 1.798656 4.266546 -0.966807
v 1.798656 4.266546 -0.966807
v 1.798656 4.266546 -0.966807
v -1.000997 2.355737 -1.312546
v -1.000997 2.355737 -1.312546
v -1.000997 2.355737 -1.312546
v -1.000997 2.355737 -1.312546
v 0.519753 6.846972 1.361299
v 0.519753 6.846972 1.361299
v 0.519753 6.846972 1.361299
v 0.519753 6.846972 1.361299
v 0.519753 6.846972 1.361299
v 0.537587 2.732355 -1.335701
v 0.537587 2.732355 -1.335701
v 0.537587 2.732355 -1.335701
v 0.537587 2.732355 -1.335701
v -1.694234 2.740555 0.388030
v -1.694234 2.740555 0.388030
v -1.694234 2.740555 0.388030
v -1.694234 2.740555 0.388030
v -1.856443 4.736817 1.540203
v -1.856443 4.736817 1.540203
v -1.856443 4.736817 1.540203
v -1.856443 4.736817 1.540203
v -1.856443 4.736817 1.540203
v -1.901090 6.025522 -0.111734
v -1.901090 6.025522 -0.111734
v -1.901090 6.025522 -0.111734
v -1.901090 6.025522 -0.111734
v -1.901090 6.025522 -0.111734
v 1.354105 4.337109 1.447886
v 1.354105 4.337109 1.447886
v 1.354105 4.337109 1.447886
v 1.354105 4.337109 1.447886
v 1.354105 4.337109 1.447886
v 1.310022 2.872795 0.477139
v 1.310022 2.872795 0.477139
v 1.310022 2.872795 0.477139
v 1.310022 2.872795 0.477139
v 0.298435 2.054494 -0.063369
v 0.298435 2.054494 -0.063369
v 0.298435 2.054494 -0.063369
v 0.298435 2.054494 -0.063369
v -0.265936 3.060119 1.494113
v -0.265936 3.060119 1.494113
v -0.265936 3.060119 1.494113
v -0.265936 3.060119 1.494113
v -0.686370 5.757943 1.764029
v -0.686370 5.757943 1.764029
v -0.686370 5.757943 1.764029
v -0.686370 5.757943 1.764029
v -0.686370 5.757943 1.764029
v 0.625216 8.188940 -0.436404
v 0.625216 8.188940 -0.436404
v 0.625216 8.188940 -0.436404
v 0.625216 8.188940 -0.436404
v 0.347294 8.120342 0.547185
v 0.347294 8.120342 0.547185
v 0.347294 8.120342 0.547185
v 0.347294 8.120342 0.547185
v -1.396779 7.897048 0.852036
v -1.396779 7.897048 0.852036
v -1.396779 7.897048 0.852036
v -1.396779 7.897048 0.852036
v -1.140172 8.136684 -0.795372
v -1.140172 8.136684 -0.795372
v -1.140172 8.136684 -0.795372
v -1.140172 8.136684 -0.795372
v -0.113677 7.392015 -1.236787
v -0.113677 7.392015 -1.236787
v -0.113677 7.392015 -1.236787
v -0.113677 7.392015 -1.236787
v -1.113312 9.229436 0.024348
v -1.113312 9.229436 0.024348
v -1.113312 9.229436 0.024348
v -1.113312 9.229436 0.024348
v -0.100824 -0.229682 -0.280940
v -0.100824 -0.229682 -0.280940
v 0.155490 -0.229681 -0.094717
v 0.155490 -0.229681 -0.094717
v 0.155490 1.029204 -0.278203
v 0.155490 1.029204 -0.278203
v 0.155490 1.029204 -0.278203
v -0.100824 1.041720 -0.464004
v -0.100824 1.041720 -0.464004
v -0.100824 1.041720 -0.464004
v 0.057587 -0.229681 0.206598
v 0.057587 -0.229681 0.206598
v 0.057587 1.008954 0.022431
v 0.057587 1.008954 0.022431
v 0.057587 1.008954 0.022431
v -0.259235 -0.229682 0.206598
v -0.259235 -0.229682 0.206598
v -0.259234 1.008954 0.022431
v -0.259234 1.008954 0.022431
v -0.259234 1.008954 0.022431
v -0.357138 -0.229681 -0.094717
v -0.357138 -0.229681 -0.094717
v -0.357137 1.029204 -0.278203
v -0.357137 1.029204 -0.278203
v -0.357137 1.029204 -0.278203
v 0.078237 2.333814 -0.145953
v 0.078237 2.333814 -0.145953
v -0.100824 2.342558 -0.275753
v -0.100824 2.342558 -0.275753
v 0.009842 2.319667 0.064070
v 0.009842 2.319667 0.064070
v -0.211489 2.319667 0.064070
v -0.211489 2.319667 0.064070
v -0.279884 2.333814 -0.145953
v -0.279884 2.333814 -0.145953
v -0.246997 1.282035 -0.369315
v -0.246997 1.282035 -0.369315
v -0.246997 1.513867 -0.293906
v -0.246997 1.513867 -0.293906
v -0.414271 1.757740 -0.744293
v -0.414271 1.757740 -0.744293
v -0.414271 1.757740 -0.744293
v -0.284336 1.562096 -0.882117
v -0.284336 1.562096 -0.882117
v -0.284336 1.562096 -0.882117
v 0.025221 1.538108 -0.222417
v 0.025221 1.538108 -0.222417
v -0.174972 1.862071 -0.666791
v -0.174972 1.862071 -0.666791
v -0.174972 1.862071 -0.666791
v 0.065479 1.257795 -0.231402
v 0.065479 1.257795 -0.231402
v -0.045037 1.666426 -0.804615
v -0.045037 1.666426 -0.804615
v -0.045037 1.666426 -0.804615
v -0.633397 2.627522 -0.756252
v -0.633397 2.627522 -0.756252
v -0.654937 2.597467 -0.968518
v -0.654937 2.597467 -0.968518
v -0.419014 2.630542 -0.734925
v -0.419014 2.630542 -0.734925
v -0.421795 2.597857 -0.965765
v -0.421795 2.597857 -0.965765
vt 0.560507 0.561458
vt 0.476928 0.658061
vt 0.463498 0.561458
vt 0.269467 0.622203
vt 0.337566 0.518979
vt 0.362776 0.622203
vt 0.537654 0.347845
vt 0.537654 0.471509
vt 0.461719 0.381350
vt 0.338044 0.754670
vt 0.215137 0.754671
vt 0.278309 0.687384
vt 0.658035 0.759472
vt 0.719601 0.825087
vt 0.658035 0.865730
vt 0.623617 0.393825
vt 0.716926 0.393825
vt 0.680290 0.471509
vt 0.270513 0.305459
vt 0.351716 0.386374
vt 0.191815 0.386374
vt 0.259684 0.387043
vt 0.362776 0.453962
vt 0.191815 0.453962
vt 0.481424 0.706313
vt 0.560507 0.658730
vt 0.560507 0.754890
vt 0.782197 0.627356
vt 0.708426 0.627356
vt 0.728131 0.561458
vt 0.448711 0.561458
vt 0.462829 0.656575
vt 0.363445 0.656575
vt 0.363445 0.454631
vt 0.455038 0.528829
vt 0.363445 0.560789
vt 0.686383 0.485100
vt 0.600288 0.560789
vt 0.590223 0.485100
vt 0.786376 0.406430
vt 0.720205 0.471509
vt 0.717595 0.406430
vt 0.609849 0.759472
vt 0.657366 0.830238
vt 0.561176 0.830238
vt 0.604121 0.758803
vt 0.561176 0.669176
vt 0.647065 0.669176
vt 0.215137 0.622872
vt 0.362776 0.622873
vt 0.286610 0.686715
vt 0.385501 0.842279
vt 0.385501 0.765924
vt 0.467249 0.815937
vt 0.766549 0.485100
vt 0.766549 0.550231
vt 0.687052 0.517719
vt 0.560507 0.755559
vt 0.506684 0.835280
vt 0.474618 0.755559
vt 0.685961 0.363790
vt 0.538323 0.363790
vt 0.634630 0.312552
vt 0.191815 0.454631
vt 0.362776 0.454631
vt 0.309544 0.518310
vt 0.376199 0.871126
vt 0.307349 0.842948
vt 0.467249 0.842948
vt 0.363445 0.765255
vt 0.363445 0.687384
vt 0.467249 0.720925
vt 0.268797 0.613307
vt 0.196270 0.613307
vt 0.244001 0.518979
vt 0.242138 0.886026
vt 0.209188 0.815470
vt 0.242138 0.755340
vt 0.622947 0.408147
vt 0.538323 0.471509
vt 0.538323 0.364460
vt 0.461050 0.412217
vt 0.363445 0.453962
vt 0.363445 0.347845
vt 0.455707 0.497933
vt 0.589554 0.497933
vt 0.531921 0.560789
vt 0.707757 0.666292
vt 0.644287 0.627486
vt 0.707757 0.561458
vt 0.657366 0.830907
vt 0.579217 0.891340
vt 0.565779 0.830907
vt 0.352385 0.345977
vt 0.394268 0.305459
vt 0.469306 0.345977
vt 0.242808 0.831632
vt 0.264285 0.755340
vt 0.338044 0.831632
vt 0.561176 0.567105
vt 0.643618 0.561458
vt 0.643618 0.668507
vt 0.754891 0.758803
vt 0.754891 0.653969
vt 0.779833 0.694933
vt 0.480755 0.658730
vt 0.429304 0.686091
vt 0.376396 0.658730
vt 0.779833 0.759472
vt 0.741753 0.828983
vt 0.720270 0.759472
vt 0.769265 0.378796
vt 0.686630 0.378796
vt 0.739182 0.312552
vt 0.721116 0.669176
vt 0.752093 0.722778
vt 0.647734 0.722778
vt 0.720270 0.829652
vt 0.768230 0.829652
vt 0.732696 0.913291
vt 0.419546 0.113724
vt 0.419630 0.038187
vt 0.439454 0.040255
vt 0.399455 0.058060
vt 0.327411 0.078257
vt 0.327411 0.058278
vt 0.513264 0.077654
vt 0.439599 0.077654
vt 0.440862 0.058025
vt 0.515778 0.038187
vt 0.516339 0.057879
vt 0.439991 0.051944
vt 0.478517 0.176516
vt 0.403696 0.176438
vt 0.399601 0.157168
vt 0.399601 0.116463
vt 0.399815 0.042798
vt 0.419400 0.038187
vt 0.366312 0.090180
vt 0.382031 0.078403
vt 0.372705 0.109235
vt 0.327411 0.187937
vt 0.338629 0.179688
vt 0.331495 0.201284
vt 0.476113 0.116609
vt 0.476113 0.136730
vt 0.399601 0.133826
vt 0.477643 0.176662
vt 0.475532 0.196218
vt 0.399601 0.190324
vt 0.475509 0.196364
vt 0.475618 0.216295
vt 0.399677 0.210288
vt 0.475509 0.136875
vt 0.475509 0.156855
vt 0.399601 0.157022
vt 0.455276 0.115077
vt 0.441333 0.112899
vt 0.439599 0.079039
vt 0.494324 0.191067
vt 0.478663 0.199314
vt 0.494835 0.157168
vt 0.489885 0.127714
vt 0.476259 0.136730
vt 0.476259 0.092045
vt 0.327411 0.116756
vt 0.327411 0.095367
vt 0.366166 0.094514
vt 0.390675 0.116902
vt 0.391022 0.134033
vt 0.331734 0.120213
vt 0.365056 0.195889
vt 0.367170 0.179688
vt 0.384732 0.181881
vt 0.393644 0.134179
vt 0.392466 0.147684
vt 0.379181 0.134891
vt 0.375405 0.168368
vt 0.386445 0.179542
vt 0.327411 0.179542
vt 0.391022 0.151272
vt 0.379228 0.161647
vt 0.327702 0.164825
vt 0.379035 0.134179
vt 0.376507 0.151127
vt 0.327411 0.134179
vt 0.439454 0.115077
vt 0.398283 0.038187
vt 0.514527 0.058025
vt 0.439599 0.038187
vt 0.475138 0.157168
vt 0.419400 0.113009
vt 0.398139 0.090180
vt 0.392375 0.109235
vt 0.349645 0.187937
vt 0.345236 0.201284
vt 0.399601 0.119770
vt 0.401076 0.176662
vt 0.399601 0.196364
vt 0.399601 0.143064
vt 0.455276 0.078044
vt 0.478663 0.162832
vt 0.491949 0.091291
vt 0.360330 0.078403
vt 0.327411 0.134033
vt 0.386445 0.195889
vt 0.379181 0.149530
vt 0.328818 0.164971
vt 0.327411 0.151272
vt 0.329950 0.147349
vn -0.979583 0.144749 0.139409
vn -0.569536 -0.340068 -0.748283
vn -0.586963 0.104526 -0.802820
vn 0.644765 -0.369030 -0.669362
vn 0.157323 -0.686361 -0.709983
vn -0.790704 -0.581713 -0.190680
vn 0.934568 0.316294 0.162786
vn 0.529466 0.499008 -0.685995
vn 0.772912 -0.566668 -0.285409
vn 0.208655 -0.878842 -0.428999
vn -0.953276 -0.205298 0.221503
vn -0.742973 0.423933 -0.517899
vn 0.971435 -0.150700 0.183233
vn 0.684561 -0.688864 -0.238319
vn -0.305979 -0.947783 0.089724
vn -0.472762 -0.468978 0.745994
vn 0.028687 -0.000214 0.999573
vn 0.422987 -0.509476 0.749321
vn 0.292154 -0.751701 0.591235
vn -0.184393 -0.854793 0.485092
vn 0.001251 -0.215461 0.976501
vn 0.617664 0.419416 -0.665242
vn 0.895718 0.044862 0.442274
vn 0.225440 0.108341 0.968200
vn -0.624226 0.607685 0.490921
vn -0.182012 0.512040 0.839442
vn -0.841548 -0.050172 0.537797
vn -0.835658 0.128269 -0.534013
vn 0.719413 0.093326 -0.688253
vn 0.891720 0.336009 0.303140
vn 0.704672 0.056917 -0.707205
vn -0.044313 0.463454 -0.884976
vn -0.945921 0.307718 -0.102573
vn 0.103977 0.419080 0.901944
vn 0.911771 0.301645 0.278664
vn 0.089480 0.596240 -0.797784
vn -0.982879 0.125309 -0.134861
vn 0.083651 0.512925 0.854335
vn 0.166082 0.617847 -0.768517
vn 0.542467 0.813379 0.209998
vn 0.583056 -0.116947 -0.803949
vn 0.579211 -0.116153 -0.806848
vn 0.579852 -0.116306 -0.806330
vn 0.949889 0.045808 0.309183
vn 0.948943 0.045473 0.312082
vn 0.949095 0.045534 0.311594
vn 0.000000 0.147069 0.989105
vn -0.586657 0.115970 -0.801477
vn -0.583056 -0.116001 -0.804071
vn -0.579058 -0.117557 -0.806726
vn -0.579821 -0.117252 -0.806207
vn -0.949889 0.045198 0.309244
vn -0.948882 0.046388 0.312113
vn -0.949095 0.046144 0.311533
vn 0.000000 -1.000000 0.000000
vn 0.000000 -0.999969 0.000000
vn 0.000000 0.997711 0.067202
vn -0.950041 0.024720 0.311045
vn 0.000000 -0.031739 0.999481
vn 0.586657 0.115970 -0.801477
vn 0.950041 0.024720 0.311045
vn -0.963866 -0.214820 0.157414
vn -0.949034 -0.097476 0.299661
vn -0.923978 -0.376720 -0.065737
vn -0.211249 0.824488 0.524918
vn -0.303629 0.759453 0.575304
vn -0.402417 0.671957 0.621693
vn 0.970702 0.230873 -0.066225
vn 0.985656 0.144353 -0.087130
vn 0.889370 0.457106 -0.006561
vn 0.201758 -0.778710 -0.594012
vn 0.264534 -0.780450 -0.566454
vn 0.400433 -0.771050 -0.495071
vn 0.321238 -0.033784 -0.946379
vn 0.280465 -0.040223 -0.959014
vn 0.053591 -0.073305 -0.995849
vn -0.322977 -0.166723 0.931578
vn -0.247871 -0.066561 0.966491
vn -0.340251 -0.190435 0.920835
vn 0.000000 0.990112 -0.140172
vn 0.892300 0.390973 0.225562
vn 0.878658 0.400403 0.259987
vn 0.949217 0.314402 -0.009857
vn -0.910031 -0.260018 -0.322764
vn -0.846065 -0.219825 -0.485580
vn -0.944121 -0.319041 0.082461
vn -0.284402 -0.058473 0.956908
vn -0.259224 -0.042482 0.964873
vn -0.142125 0.030488 0.989349
vn 0.583728 -0.117100 -0.803430
vn 0.950041 0.045869 0.308664
vn -0.583819 -0.115696 -0.803583
vn -0.950072 0.044984 0.308695
vn -0.873440 -0.451247 -0.182836
vn -0.470809 0.598315 0.648305
vn 0.838862 0.543962 0.018647
vn 0.475234 -0.757164 -0.448103
vn 0.011902 -0.078921 -0.996796
vn -0.405560 -0.282723 0.869228
vn 0.953063 0.297891 -0.053652
vn -0.935789 -0.323191 0.140721
vn -0.099612 0.056429 0.993408
s 1
f 56/1/1 34/2/1 97/3/1
f 29/4/2 28/5/2 33/6/2
f 52/7/3 57/8/3 66/9/3
f 50/10/4 71/11/4 32/12/4
f 53/13/5 84/14/5 75/15/5
f 55/16/6 76/17/6 38/18/6
f 35/19/7 70/20/7 40/21/7
f 31/22/8 51/23/8 60/24/8
f 85/25/9 72/26/9 36/27/9
f 77/28/10 86/29/10 37/30/10
f 58/31/11 88/32/11 92/33/11
f 65/34/12 59/35/12 42/36/12
f 74/37/13 103/38/13 107/39/13
f 87/40/14 108/41/14 111/42/14
f 78/43/15 112/44/15 89/45/15
f 94/46/16 90/47/16 39/48/16
f 102/49/17 93/50/17 115/51/17
f 109/52/18 105/53/18 116/54/18
f 113/55/19 110/56/19 117/57/19
f 91/58/20 114/59/20 118/60/20
f 95/61/21 104/62/21 43/63/21
f 30/64/22 54/65/22 41/66/22
f 61/67/23 79/68/23 73/69/23
f 80/70/24 119/71/24 106/72/24
f 96/73/25 120/74/25 98/75/25
f 121/76/26 81/77/26 44/78/26
f 99/79/27 122/80/27 45/81/27
f 67/82/28 100/83/28 46/84/28
f 63/85/29 68/86/29 47/87/29
f 82/88/30 62/89/30 48/90/30
f 64/91/31 140/92/31 124/93/31
f 136/94/32 141/95/32 69/96/32
f 132/97/33 137/98/33 101/99/33
f 128/100/34 133/101/34 123/102/34
f 83/103/35 125/104/35 129/105/35
f 142/106/36 138/107/36 144/108/36
f 139/109/37 134/110/37 145/111/37
f 135/112/38 130/113/38 49/114/38
f 126/115/39 143/116/39 146/117/39
f 131/118/40 127/119/40 147/120/40
f 1/121/41 2/122/42 4/123/43
f 150/124/44 152/125/45 6/126/46
f 158/127/47 160/128/47 8/129/47
f 155/130/48 171/131/48 181/132/48
f 168/133/49 170/134/50 157/135/51
f 163/136/52 165/137/53 10/138/54
f 169/139/55 149/140/55 164/141/56
f 12/142/57 11/143/57 13/144/57
f 172/145/58 166/146/58 179/147/58
f 167/148/59 161/149/59 177/150/59
f 153/151/60 156/152/60 176/153/60
f 162/154/61 154/155/61 174/156/61
f 20/157/62 21/158/63 17/159/64
f 185/160/65 22/161/66 187/162/67
f 193/163/68 23/164/69 19/165/70
f 198/166/71 183/167/72 200/168/73
f 201/169/74 191/170/75 209/171/76
f 199/172/77 194/173/78 186/174/79
f 24/175/80 25/176/80 27/177/80
f 196/178/81 202/179/82 210/180/83
f 192/181/84 188/182/85 203/183/86
f 189/184/87 197/185/88 204/186/89
f 3/187/90 1/121/41 4/123/43
f 5/188/91 150/124/44 6/126/46
f 7/189/47 158/127/47 8/129/47
f 175/190/48 155/130/48 181/132/48
f 148/191/92 168/133/49 157/135/51
f 9/192/93 163/136/52 10/138/54
f 149/140/55 151/193/56 159/194/56
f 164/141/56 149/140/55 159/194/56
f 11/143/57 15/195/57 13/144/57
f 15/195/57 14/196/57 13/144/57
f 182/197/58 172/145/58 179/147/58
f 180/198/59 167/148/59 177/150/59
f 173/199/60 153/151/60 176/153/60
f 178/200/61 162/154/61 174/156/61
f 16/201/94 20/157/62 17/159/64
f 22/161/66 18/202/95 187/162/67
f 195/203/96 193/163/68 19/165/70
f 183/167/72 190/204/97 200/168/73
f 191/170/75 205/205/98 209/171/76
f 184/206/99 199/172/77 186/174/79
f 25/176/80 26/207/80 27/177/80
f 207/208/100 196/178/81 210/180/83
f 206/209/101 192/181/84 203/183/86
f 197/185/88 208/210/102 204/186/89
